<?xml version="1.0" encoding="UTF-8"?><svg id="b" xmlns="http://www.w3.org/2000/svg" viewBox="0 0 492.73633 45.73877"><g id="c"><g><path d="M7.92578,5.68701c-.18164,2.90381-.36279,6.05029-.60498,8.9541l-2.05713,27.95166c-.12061,1.87549-1.14941,2.72266-2.66211,2.72266-1.57275,0-2.60156-.90771-2.60156-2.23877,0-.18164,0-.48389,.06055-.84717L3.20703,5.20312C3.44873,2.23828,5.14307,.54443,7.86523,.54443c2.42041,0,4.23535,1.33105,5.20312,4.29541l8.40967,26.01562c.78662,2.48047,1.57324,5.26367,2.35986,7.80469h.42334c.90771-2.54102,1.75439-5.26367,2.60156-7.68359L35.75635,4.83984c1.02881-2.96436,2.66211-4.29541,4.90088-4.29541,2.84326,0,4.71875,1.57275,4.96094,4.5376l3.08545,37.14746c.06055,.42383,.06055,.66553,.06055,.84717,0,1.14941-1.20996,2.23877-2.7832,2.23877-1.69385,0-2.72266-.90771-2.84326-2.72266l-1.93604-27.10449c-.24219-3.20654-.42383-6.53418-.66553-9.74072h-.42383c-1.02832,3.20654-2.05664,6.41309-3.08545,9.43799l-8.71191,25.47119c-.78662,2.29883-2.23877,3.62988-4.47705,3.62988-2.23877,0-3.56982-1.20996-4.35645-3.69043L11.07178,14.82275c-.96777-2.9043-1.87549-6.17139-2.72217-9.13574h-.42383Z"/><path d="M74.90283,24.13965c0-3.32764-2.41992-5.44482-5.68701-5.44482-2.96484,0-5.02148,.96777-6.83691,2.54102-.42334,.36279-.96777,.66553-1.57275,.66553-1.20996,0-2.23877-1.14941-2.23877-2.05713,0-.60498,0-1.02832,.42383-1.45215,1.99658-1.99658,6.0498-3.93262,10.46631-3.93262,6.77637,0,10.58789,3.38818,10.58789,9.68018v10.76953c0,4.47705,.72607,5.68701,2.23877,6.53418,.84668,.48389,1.20996,.90723,1.20996,1.75439,0,1.33105-.78662,2.17773-1.87549,2.17773-1.02881,0-2.05713-.36279-2.72266-.66553-1.5127-.72559-2.54102-1.81494-3.08545-3.56934-1.87598,2.84375-4.90088,4.59814-9.19629,4.59814-6.53418,0-9.98291-3.63037-9.98291-8.53076,0-5.38477,3.50928-8.28857,7.92578-9.49854,3.32764-.90771,6.77637-1.20996,10.3457-1.20996v-2.35986Zm0,6.05029c-3.0249,0-5.9292,.36279-8.65186,1.27051-2.23828,.72607-4.4165,2.35938-4.4165,5.26367,0,3.0249,1.81494,5.14258,5.68701,5.14258,3.81201,0,7.38135-2.9043,7.38135-7.50244v-4.17432Z"/><path d="M98.01562,31.3999c-6.65527-1.45215-8.9541-4.29541-8.9541-9.01465s4.23486-7.92578,10.28516-7.92578c3.99316,0,7.44141,1.08936,9.92188,3.50928,.48438,.42334,.72607,1.02832,.72607,1.69385,0,1.14941-1.08887,2.35986-2.29883,2.35986-.66553,0-1.20996-.18164-1.75439-.72607-2.05713-2.11768-3.93262-2.7832-6.59473-2.7832-3.08545,0-5.32422,1.45215-5.32422,3.87207,0,2.7832,1.33105,3.81152,6.11084,4.77979l2.05664,.42334c6.17139,1.27051,8.77295,3.99316,8.77295,9.19629s-3.99316,8.9541-11.13232,8.9541c-4.90039,0-8.9541-1.63379-11.19287-4.4165-.42334-.48438-.66553-1.08936-.66553-1.75488,0-1.08887,1.1499-2.11719,2.29932-2.11719,.72607,0,1.20996,.18115,1.81494,.90723,2.11768,2.48047,4.65869,3.26709,7.74414,3.26709,4.11426,0,6.11084-1.93604,6.11084-4.83984,0-2.42041-1.21045-3.93262-5.98975-4.96143l-1.93604-.42334Z"/><path d="M135.04297,24.13965c0-3.32764-2.41992-5.44482-5.68701-5.44482-2.96484,0-5.02148,.96777-6.83691,2.54102-.42334,.36279-.96777,.66553-1.57275,.66553-1.20996,0-2.23877-1.14941-2.23877-2.05713,0-.60498,0-1.02832,.42383-1.45215,1.99658-1.99658,6.0498-3.93262,10.46631-3.93262,6.77637,0,10.58789,3.38818,10.58789,9.68018v10.76953c0,4.47705,.72607,5.68701,2.23877,6.53418,.84668,.48389,1.20996,.90723,1.20996,1.75439,0,1.33105-.78662,2.17773-1.87549,2.17773-1.02881,0-2.05713-.36279-2.72266-.66553-1.5127-.72559-2.54102-1.81494-3.08545-3.56934-1.87549,2.84375-4.90088,4.59814-9.19629,4.59814-6.53418,0-9.98291-3.63037-9.98291-8.53076,0-5.38477,3.50928-8.28857,7.92578-9.49854,3.32764-.90771,6.77637-1.20996,10.3457-1.20996v-2.35986Zm0,6.05029c-3.0249,0-5.9292,.36279-8.65186,1.27051-2.23828,.72607-4.4165,2.35938-4.4165,5.26367,0,3.0249,1.81494,5.14258,5.68701,5.14258,3.81201,0,7.38135-2.9043,7.38135-7.50244v-4.17432Z"/><path d="M168.80371,15.66943c.54492-.54443,1.02832-.78613,1.93652-.78613,1.20996,0,2.35938,1.20996,2.35938,2.29883,0,.90771-.24219,1.3916-.84668,1.93604l-8.89453,7.98633,11.25391,13.97559c.3623,.48389,.60449,1.08887,.60449,1.69385,0,1.57324-1.27051,2.5415-2.66211,2.5415-.60449,0-1.33105-.30273-1.69336-.78662l-10.95117-14.33887-3.56934,3.0249v9.55908c0,1.69434-.90771,2.5415-2.60156,2.5415-1.69434,0-2.60156-.84717-2.60156-2.5415V2.54102c0-1.69434,.90723-2.54102,2.60156-2.54102,1.69385,0,2.60156,.84668,2.60156,2.54102V27.64893l12.46289-11.97949Z"/><path d="M189.13379,4.29541c0,2.11768-1.63379,3.75098-3.81152,3.75098s-3.81152-1.6333-3.81152-3.75098,1.63379-3.75098,3.81152-3.75098,3.81152,1.6333,3.81152,3.75098Zm-6.53418,13.12891c0-1.63379,1.02832-2.54102,2.66211-2.54102s2.66211,.90723,2.66211,2.54102v25.34961c0,1.63379-1.02832,2.5415-2.66211,2.5415s-2.66211-.90771-2.66211-2.5415V17.42432Z"/><path d="M196.21289,2.66211c0-1.5127,1.27051-2.66211,3.02441-2.66211,1.75488,0,2.9043,1.14941,2.9043,2.66211v.36279l-1.08887,13.73389c-.12109,1.20996-.84668,1.81494-1.81543,1.81494-1.02832,0-1.69336-.60498-1.81445-1.81494l-1.20996-13.73389v-.36279Z"/><path d="M217.50879,31.3999c-6.6543-1.45215-8.9541-4.29541-8.9541-9.01465s4.23535-7.92578,10.28516-7.92578c3.99316,0,7.44238,1.08936,9.92285,3.50928,.4834,.42334,.72559,1.02832,.72559,1.69385,0,1.14941-1.08887,2.35986-2.29883,2.35986-.66602,0-1.20996-.18164-1.75488-.72607-2.05664-2.11768-3.93262-2.7832-6.59473-2.7832-3.08496,0-5.32324,1.45215-5.32324,3.87207,0,2.7832,1.33105,3.81152,6.11035,4.77979l2.05664,.42334c6.1709,1.27051,8.77246,3.99316,8.77246,9.19629s-3.99316,8.9541-11.13184,8.9541c-4.90039,0-8.9541-1.63379-11.19238-4.4165-.42383-.48438-.66602-1.08936-.66602-1.75488,0-1.08887,1.14941-2.11719,2.29883-2.11719,.72656,0,1.20996,.18115,1.81543,.90723,2.11719,2.48047,4.6582,3.26709,7.74414,3.26709,4.11426,0,6.11035-1.93604,6.11035-4.83984,0-2.42041-1.20996-3.93262-5.98926-4.96143l-1.93652-.42334Z"/><path d="M270.93262,.48389c9.86133,0,14.33887,4.47705,14.33887,12.28174,0,7.50195-5.50586,12.52393-14.70215,12.52393h-9.67969v17.12158c0,1.81494-1.14941,2.9043-2.7832,2.9043-1.75488,0-2.7832-1.08936-2.7832-2.9043V8.04639c0-5.44482,2.05664-7.5625,7.25977-7.5625h8.34961Zm-.36328,20.50977c5.56641,0,8.9541-3.146,8.9541-8.22803,0-5.14258-2.72266-7.92578-8.59082-7.92578h-7.01855c-1.93555,0-3.02441,1.27051-3.02441,3.26709v12.88672h9.67969Z"/><path d="M292.29004,30.0083c0-9.61963,5.56641-15.54883,13.61328-15.54883,8.10742,0,13.6123,5.86865,13.6123,15.54883,0,9.80127-5.50488,15.73047-13.6123,15.73047-8.04688,0-13.61328-5.98975-13.61328-15.73047Zm21.78125,0c0-7.01807-3.14648-11.37402-8.16797-11.37402s-8.16797,4.35596-8.16797,11.37402c0,7.13916,3.14648,11.55566,8.16797,11.55566s8.16797-4.4165,8.16797-11.55566Z"/><path d="M333.37207,42.71387c0,1.69385-.96777,2.60156-2.66211,2.60156s-2.60156-.90771-2.60156-2.60156V17.36377c0-1.57324,.96777-2.48047,2.48047-2.48047s2.54102,.90723,2.54102,2.48047v4.65869c1.99609-4.71924,5.44531-7.56299,9.13574-7.56299,1.875,0,2.66211,.96826,2.66211,2.54102,0,1.5127-1.02832,2.54102-2.66211,2.54102-5.32422,0-8.89355,5.20312-8.89355,12.10059v11.07178Z"/><path d="M359.69141,36.84521c0,2.78271,1.45215,4.59814,3.20605,4.59814,.9082,0,1.93652-.12109,2.9043-.36328,.60547-.18164,1.33105-.36279,1.75488-.36279,1.14941,0,1.81445,.72607,1.81445,2.05664,0,1.02881-.4834,1.81543-1.33105,2.11768-1.51172,.54443-3.3877,.84717-5.14258,.84717-5.80762,0-8.53027-2.48047-8.53027-9.13574V19.4209h-3.99316c-1.33105,0-2.17773-.72607-2.17773-2.05713s.84668-2.05713,2.17773-2.05713h3.99316V6.53418c0-1.63379,1.02832-2.54102,2.66211-2.54102s2.66211,.90723,2.66211,2.54102V15.30664h6.95703c1.33105,0,2.17871,.72607,2.17871,2.05713s-.84766,2.05713-2.17871,2.05713h-6.95703v17.42432Z"/><path d="M391.0918,15.30664c1.33105,0,2.17871,.72607,2.17871,2.05713s-.84766,2.05713-2.17871,2.05713h-6.59473v23.35303c0,1.63379-1.02832,2.5415-2.66113,2.5415-1.63379,0-2.66211-.90771-2.66211-2.5415V19.4209h-4.53809c-1.33105,0-2.17773-.72607-2.17773-2.05713s.84668-2.05713,2.17773-2.05713h4.53809v-5.26367c0-6.65527,3.87207-10.04297,9.80078-10.04297,.78613,0,1.75488,.06055,2.60156,.18115,1.08887,.18164,1.69434,.96826,1.69434,2.17822s-.84766,2.17822-1.69434,2.17822c-.72559,0-1.75488-.18164-2.60156-.18164-2.35938,0-4.47754,2.05713-4.47754,5.56592v5.38477h6.59473Z"/><path d="M398.23145,30.0083c0-9.61963,5.56641-15.54883,13.61328-15.54883,8.10742,0,13.6123,5.86865,13.6123,15.54883,0,9.80127-5.50488,15.73047-13.6123,15.73047-8.04688,0-13.61328-5.98975-13.61328-15.73047Zm21.78125,0c0-7.01807-3.14648-11.37402-8.16797-11.37402s-8.16797,4.35596-8.16797,11.37402c0,7.13916,3.14648,11.55566,8.16797,11.55566s8.16797-4.4165,8.16797-11.55566Z"/><path d="M434.29199,2.54102c0-1.63379,1.02832-2.54102,2.60156-2.54102,1.63281,0,2.66211,.90723,2.66211,2.54102V36.11914c0,3.93262,1.33105,5.02148,3.20605,5.02148,.30273,0,.72656-.06055,1.02832-.06055,.96875,0,1.69434,.84717,1.69434,2.05713s-.72559,2.11768-1.69434,2.23828c-.4834,.06055-1.33105,.12109-1.69336,.12109-4.90137,0-7.80469-2.23828-7.80469-9.01465V2.54102Z"/><path d="M458.19043,4.29541c0,2.11768-1.63379,3.75098-3.81152,3.75098s-3.81152-1.6333-3.81152-3.75098,1.63379-3.75098,3.81152-3.75098,3.81152,1.6333,3.81152,3.75098Zm-6.53418,13.12891c0-1.63379,1.02832-2.54102,2.66211-2.54102s2.66211,.90723,2.66211,2.54102v25.34961c0,1.63379-1.02832,2.5415-2.66211,2.5415s-2.66211-.90771-2.66211-2.5415V17.42432Z"/><path d="M465.51074,30.0083c0-9.61963,5.56641-15.54883,13.61328-15.54883,8.10742,0,13.6123,5.86865,13.6123,15.54883,0,9.80127-5.50488,15.73047-13.6123,15.73047-8.04688,0-13.61328-5.98975-13.61328-15.73047Zm21.78125,0c0-7.01807-3.14648-11.37402-8.16797-11.37402s-8.16797,4.35596-8.16797,11.37402c0,7.13916,3.14648,11.55566,8.16797,11.55566s8.16797-4.4165,8.16797-11.55566Z"/></g></g></svg>